<?xml version="1.0" encoding="UTF-8"?>
<svg xmlns="http://www.w3.org/2000/svg" xmlns:xlink="http://www.w3.org/1999/xlink" width="16px" height="16px" viewBox="0 0 16 16" version="1.1">
<g id="surface1">
<path style=" stroke:none;fill-rule:nonzero;fill:rgb(99.607843%,37.254903%,16.470589%);fill-opacity:1;" d="M 3.207031 3.578125 C 3.238281 3.578125 3.269531 3.578125 3.300781 3.578125 C 3.335938 3.578125 3.371094 3.578125 3.40625 3.578125 C 3.464844 3.578125 3.464844 3.578125 3.523438 3.578125 C 3.5625 3.578125 3.605469 3.578125 3.644531 3.578125 C 3.78125 3.582031 3.914062 3.582031 4.050781 3.582031 C 4.097656 3.582031 4.140625 3.582031 4.1875 3.582031 C 4.433594 3.585938 4.675781 3.585938 4.921875 3.589844 C 5.171875 3.589844 5.421875 3.589844 5.675781 3.59375 C 5.867188 3.59375 6.0625 3.59375 6.253906 3.597656 C 6.347656 3.597656 6.441406 3.597656 6.53125 3.597656 C 7.351562 3.597656 8.082031 3.691406 8.726562 4.289062 C 8.972656 4.597656 9.160156 4.917969 9.199219 5.328125 C 9.203125 5.355469 9.203125 5.382812 9.207031 5.414062 C 9.214844 5.480469 9.222656 5.550781 9.230469 5.617188 C 9.269531 5.621094 9.3125 5.621094 9.355469 5.625 C 9.867188 5.652344 9.867188 5.652344 10.066406 5.699219 C 10.390625 5.777344 10.738281 5.824219 11.0625 5.71875 C 11.1875 5.695312 11.304688 5.695312 11.433594 5.695312 C 11.480469 5.699219 11.527344 5.699219 11.578125 5.699219 C 11.613281 5.699219 11.652344 5.699219 11.6875 5.699219 C 11.695312 5.765625 11.695312 5.765625 11.703125 5.832031 C 11.71875 5.996094 11.734375 6.160156 11.75 6.324219 C 11.757812 6.394531 11.765625 6.464844 11.773438 6.535156 C 11.78125 6.636719 11.792969 6.738281 11.800781 6.839844 C 11.804688 6.871094 11.808594 6.902344 11.8125 6.933594 C 11.816406 6.964844 11.816406 6.996094 11.820312 7.027344 C 11.824219 7.054688 11.828125 7.085938 11.828125 7.117188 C 11.835938 7.179688 11.84375 7.242188 11.851562 7.304688 C 11.851562 7.339844 11.855469 7.371094 11.859375 7.40625 C 11.863281 7.433594 11.867188 7.464844 11.871094 7.492188 C 11.878906 7.59375 11.882812 7.695312 11.882812 7.796875 C 11.882812 7.832031 11.882812 7.863281 11.882812 7.898438 C 11.878906 7.980469 11.878906 7.980469 11.839844 8.019531 C 11.75 8.03125 11.75 8.03125 11.636719 8.03125 C 11.582031 8.035156 11.582031 8.035156 11.527344 8.039062 C 11.394531 8.015625 11.355469 7.972656 11.273438 7.859375 C 11.226562 7.785156 11.183594 7.710938 11.140625 7.640625 C 11.117188 7.597656 11.09375 7.558594 11.070312 7.519531 C 11.050781 7.484375 11.027344 7.445312 11.007812 7.410156 C 10.695312 6.875 10.300781 6.347656 9.703125 6.195312 C 9.519531 6.183594 9.335938 6.183594 9.152344 6.1875 C 9.140625 6.210938 9.128906 6.234375 9.117188 6.257812 C 8.890625 6.714844 8.640625 6.992188 8.246094 7.289062 C 8.257812 7.351562 8.269531 7.417969 8.28125 7.484375 C 8.289062 7.519531 8.292969 7.554688 8.300781 7.59375 C 8.320312 7.699219 8.320312 7.699219 8.359375 7.816406 C 8.382812 7.816406 8.410156 7.816406 8.433594 7.816406 C 8.460938 7.847656 8.484375 7.878906 8.507812 7.910156 C 8.886719 8.332031 9.789062 8.382812 10.296875 8.46875 C 10.902344 8.578125 11.480469 8.789062 11.914062 9.28125 C 11.933594 9.300781 11.953125 9.320312 11.972656 9.339844 C 12.386719 9.839844 12.445312 10.484375 12.417969 11.121094 C 12.378906 11.539062 12.191406 11.929688 11.953125 12.253906 C 11.910156 12.316406 11.910156 12.316406 11.867188 12.382812 C 11.4375 12.871094 10.875 13.136719 10.253906 13.167969 C 9.855469 13.175781 9.503906 13.054688 9.132812 12.902344 C 8.796875 12.765625 8.441406 12.691406 8.09375 12.824219 C 8.09375 12.851562 8.09375 12.878906 8.09375 12.90625 C 8.070312 12.90625 8.042969 12.90625 8.019531 12.90625 C 8.019531 12.933594 8.019531 12.960938 8.019531 12.988281 C 7.917969 13.042969 7.84375 13.03125 7.730469 13.03125 C 7.691406 13.03125 7.65625 13.03125 7.617188 13.03125 C 7.570312 13.027344 7.570312 13.027344 7.527344 13.027344 C 7.472656 12.914062 7.484375 12.820312 7.484375 12.691406 C 7.484375 12.636719 7.484375 12.585938 7.484375 12.527344 C 7.484375 12.46875 7.484375 12.410156 7.484375 12.351562 C 7.484375 12.292969 7.484375 12.230469 7.484375 12.171875 C 7.484375 12.046875 7.484375 11.921875 7.484375 11.792969 C 7.484375 11.632812 7.484375 11.472656 7.484375 11.308594 C 7.484375 11.1875 7.484375 11.0625 7.484375 10.9375 C 7.484375 10.878906 7.484375 10.820312 7.484375 10.757812 C 7.484375 10.675781 7.484375 10.59375 7.484375 10.507812 C 7.484375 10.460938 7.484375 10.414062 7.484375 10.367188 C 7.488281 10.257812 7.488281 10.257812 7.527344 10.21875 C 7.597656 10.210938 7.667969 10.203125 7.738281 10.195312 C 7.777344 10.191406 7.8125 10.1875 7.855469 10.1875 C 7.882812 10.183594 7.914062 10.179688 7.941406 10.179688 C 7.925781 10.160156 7.910156 10.140625 7.894531 10.117188 C 7.871094 10.09375 7.851562 10.066406 7.828125 10.039062 C 7.808594 10.015625 7.789062 9.988281 7.765625 9.964844 C 7.714844 9.894531 7.714844 9.894531 7.714844 9.8125 C 7.679688 9.796875 7.679688 9.796875 7.644531 9.785156 C 7.542969 9.714844 7.523438 9.648438 7.488281 9.527344 C 7.464844 9.527344 7.4375 9.527344 7.414062 9.527344 C 7.367188 9.460938 7.320312 9.394531 7.277344 9.328125 C 7.144531 9.128906 7.007812 8.941406 6.863281 8.753906 C 6.808594 8.671875 6.808594 8.671875 6.808594 8.589844 C 6.785156 8.589844 6.757812 8.589844 6.734375 8.589844 C 6.6875 8.535156 6.6875 8.535156 6.636719 8.453125 C 6.492188 8.242188 6.335938 8.042969 6.164062 7.859375 C 6.125 7.8125 6.125 7.8125 6.085938 7.765625 C 5.960938 7.683594 5.902344 7.6875 5.761719 7.691406 C 5.722656 7.691406 5.6875 7.691406 5.648438 7.691406 C 5.617188 7.691406 5.589844 7.695312 5.558594 7.695312 C 5.558594 7.972656 5.558594 8.25 5.558594 8.527344 C 5.558594 8.621094 5.558594 8.714844 5.558594 8.808594 C 5.558594 8.945312 5.558594 9.082031 5.554688 9.21875 C 5.554688 9.257812 5.554688 9.300781 5.554688 9.34375 C 5.535156 9.765625 5.535156 9.765625 5.660156 10.136719 C 5.851562 10.230469 6.023438 10.269531 6.230469 10.28125 C 6.460938 10.296875 6.460938 10.296875 6.542969 10.339844 C 6.542969 10.421875 6.546875 10.503906 6.546875 10.582031 C 6.546875 10.628906 6.546875 10.671875 6.546875 10.71875 C 6.542969 10.828125 6.542969 10.828125 6.507812 10.871094 C 6.398438 10.875 6.296875 10.875 6.1875 10.875 C 6.140625 10.875 6.140625 10.875 6.089844 10.875 C 5.976562 10.875 5.867188 10.875 5.757812 10.875 C 5.679688 10.875 5.605469 10.875 5.527344 10.875 C 5.328125 10.875 5.125 10.875 4.925781 10.871094 C 4.71875 10.871094 4.515625 10.871094 4.308594 10.871094 C 3.90625 10.871094 3.503906 10.871094 3.101562 10.871094 C 3.0625 10.675781 3.074219 10.535156 3.101562 10.339844 C 3.234375 10.308594 3.359375 10.292969 3.492188 10.28125 C 3.664062 10.265625 3.8125 10.242188 3.972656 10.179688 C 3.984375 10.152344 3.996094 10.125 4.007812 10.097656 C 4.035156 10.097656 4.058594 10.097656 4.085938 10.097656 C 4.089844 9.367188 4.09375 8.636719 4.09375 7.910156 C 4.097656 7.570312 4.097656 7.234375 4.097656 6.894531 C 4.101562 6.597656 4.101562 6.304688 4.101562 6.007812 C 4.101562 5.851562 4.105469 5.695312 4.105469 5.539062 C 4.105469 5.394531 4.105469 5.246094 4.105469 5.097656 C 4.105469 5.019531 4.109375 4.941406 4.109375 4.859375 C 4.117188 4.578125 4.117188 4.578125 3.996094 4.347656 C 3.777344 4.1875 3.597656 4.179688 3.339844 4.175781 C 3.265625 4.175781 3.265625 4.175781 3.140625 4.152344 C 3.070312 4.0625 3.0625 4.011719 3.0625 3.894531 C 3.066406 3.863281 3.070312 3.832031 3.074219 3.800781 C 3.078125 3.765625 3.082031 3.734375 3.085938 3.703125 C 3.105469 3.601562 3.113281 3.585938 3.207031 3.578125 Z M 5.597656 4.355469 C 5.539062 4.484375 5.546875 4.625 5.539062 4.769531 C 5.539062 4.800781 5.535156 4.835938 5.535156 4.871094 C 5.519531 5.269531 5.515625 5.667969 5.515625 6.066406 C 5.519531 6.195312 5.515625 6.324219 5.515625 6.453125 C 5.515625 6.535156 5.515625 6.617188 5.515625 6.699219 C 5.515625 6.734375 5.515625 6.773438 5.515625 6.8125 C 5.515625 6.847656 5.515625 6.882812 5.515625 6.917969 C 5.519531 6.949219 5.519531 6.980469 5.519531 7.011719 C 5.515625 7.085938 5.515625 7.085938 5.558594 7.125 C 6.183594 7.183594 6.867188 7.15625 7.375 6.71875 C 7.640625 6.429688 7.710938 6.007812 7.726562 5.617188 C 7.722656 5.234375 7.617188 4.878906 7.398438 4.578125 C 7.332031 4.511719 7.269531 4.476562 7.1875 4.4375 C 7.1875 4.410156 7.1875 4.382812 7.1875 4.355469 C 6.890625 4.164062 6.625 4.128906 6.285156 4.128906 C 6.230469 4.125 6.230469 4.125 6.171875 4.125 C 5.917969 4.128906 5.785156 4.171875 5.597656 4.355469 Z M 4.5 4.4375 C 4.511719 6.277344 4.527344 8.117188 4.539062 10.015625 C 4.550781 10.015625 4.5625 10.015625 4.578125 10.015625 C 4.578125 9.3125 4.578125 8.609375 4.582031 7.90625 C 4.582031 7.578125 4.582031 7.253906 4.582031 6.925781 C 4.582031 6.640625 4.582031 6.355469 4.582031 6.074219 C 4.585938 5.921875 4.585938 5.769531 4.585938 5.621094 C 4.585938 5.453125 4.585938 5.285156 4.585938 5.117188 C 4.585938 5.066406 4.585938 5.015625 4.585938 4.964844 C 4.585938 4.917969 4.585938 4.871094 4.585938 4.824219 C 4.585938 4.765625 4.585938 4.765625 4.585938 4.707031 C 4.582031 4.585938 4.582031 4.585938 4.5 4.4375 Z M 8.019531 4.886719 C 8.023438 4.921875 8.03125 4.960938 8.035156 5 C 8.066406 5.210938 8.070312 5.421875 8.078125 5.636719 C 8.078125 5.675781 8.082031 5.71875 8.082031 5.761719 C 8.085938 5.863281 8.089844 5.964844 8.09375 6.066406 C 8.105469 6.066406 8.121094 6.066406 8.132812 6.066406 C 8.164062 5.859375 8.171875 5.664062 8.160156 5.453125 C 8.15625 5.425781 8.15625 5.398438 8.15625 5.367188 C 8.144531 5.195312 8.113281 5.046875 8.058594 4.886719 C 8.042969 4.886719 8.03125 4.886719 8.019531 4.886719 Z M 8.058594 6.066406 C 8.09375 6.148438 8.09375 6.148438 8.09375 6.148438 Z M 10.929688 6.390625 C 10.929688 6.433594 10.929688 6.472656 10.929688 6.515625 C 10.957031 6.539062 10.980469 6.566406 11.007812 6.59375 C 11.007812 6.527344 11.007812 6.460938 11.007812 6.390625 C 10.980469 6.390625 10.957031 6.390625 10.929688 6.390625 Z M 7.035156 8.222656 C 7.074219 8.304688 7.074219 8.304688 7.074219 8.304688 Z M 7.109375 8.347656 C 7.242188 8.597656 7.371094 8.835938 7.566406 9.039062 C 7.589844 9.078125 7.613281 9.117188 7.640625 9.160156 C 7.664062 9.160156 7.691406 9.160156 7.714844 9.160156 C 7.71875 9.183594 7.722656 9.203125 7.722656 9.226562 C 7.769531 9.371094 7.847656 9.457031 7.941406 9.566406 C 7.96875 9.566406 7.992188 9.566406 8.019531 9.566406 C 8.027344 9.59375 8.039062 9.617188 8.046875 9.644531 C 8.101562 9.746094 8.148438 9.765625 8.246094 9.8125 C 8.105469 9.605469 7.957031 9.402344 7.8125 9.199219 C 7.765625 9.132812 7.722656 9.066406 7.679688 8.996094 C 7.652344 8.996094 7.628906 8.996094 7.601562 8.996094 C 7.59375 8.96875 7.585938 8.941406 7.574219 8.910156 C 7.519531 8.773438 7.445312 8.671875 7.355469 8.558594 C 7.328125 8.515625 7.296875 8.476562 7.265625 8.4375 C 7.238281 8.40625 7.214844 8.375 7.1875 8.347656 C 7.160156 8.347656 7.136719 8.347656 7.109375 8.347656 Z M 9.003906 9.28125 C 9.0625 9.40625 9.0625 9.40625 9.148438 9.429688 C 9.1875 9.441406 9.1875 9.441406 9.230469 9.449219 C 9.261719 9.453125 9.292969 9.460938 9.324219 9.46875 C 9.375 9.476562 9.375 9.476562 9.425781 9.484375 C 9.496094 9.5 9.5625 9.511719 9.632812 9.527344 C 9.667969 9.535156 9.699219 9.539062 9.734375 9.546875 C 9.824219 9.566406 9.914062 9.585938 10.003906 9.605469 C 10.027344 9.609375 10.054688 9.617188 10.078125 9.621094 C 10.148438 9.636719 10.214844 9.652344 10.28125 9.667969 C 10.398438 9.6875 10.507812 9.695312 10.628906 9.691406 C 10.441406 9.554688 10.238281 9.511719 10.019531 9.464844 C 9.996094 9.460938 9.96875 9.457031 9.945312 9.449219 C 9.632812 9.386719 9.316406 9.328125 9.003906 9.28125 Z M 10.703125 9.691406 C 10.773438 9.757812 10.773438 9.757812 10.855469 9.8125 C 10.894531 9.796875 10.929688 9.785156 10.96875 9.769531 C 10.867188 9.710938 10.820312 9.691406 10.703125 9.691406 Z M 8.246094 9.8125 C 8.285156 9.894531 8.285156 9.894531 8.285156 9.894531 Z M 10.96875 9.8125 C 11.089844 9.917969 11.207031 10.019531 11.347656 10.097656 C 11.371094 10.082031 11.398438 10.070312 11.421875 10.054688 C 11.332031 9.949219 11.238281 9.878906 11.121094 9.8125 C 11.070312 9.8125 11.019531 9.8125 10.96875 9.8125 Z M 8.285156 9.894531 C 8.285156 9.921875 8.285156 9.945312 8.285156 9.972656 C 8.320312 9.988281 8.359375 10 8.398438 10.015625 C 8.398438 9.988281 8.398438 9.960938 8.398438 9.933594 C 8.359375 9.921875 8.324219 9.90625 8.285156 9.894531 Z M 9.53125 9.894531 C 9.53125 9.921875 9.53125 9.945312 9.53125 9.972656 C 9.71875 10.167969 9.9375 10.277344 10.175781 10.382812 C 10.175781 10.53125 10.175781 10.675781 10.175781 10.828125 C 10.023438 10.832031 9.871094 10.835938 9.71875 10.839844 C 9.664062 10.839844 9.613281 10.839844 9.5625 10.84375 C 9.046875 10.855469 8.621094 10.765625 8.207031 10.421875 C 8.179688 10.398438 8.152344 10.378906 8.125 10.355469 C 8.101562 10.335938 8.078125 10.320312 8.058594 10.300781 C 8.222656 10.878906 8.472656 11.367188 8.8125 11.847656 C 8.832031 11.875 8.851562 11.902344 8.871094 11.929688 C 8.957031 12.050781 9.011719 12.105469 9.152344 12.132812 C 9.167969 12.171875 9.179688 12.214844 9.191406 12.253906 C 9.617188 12.5625 10.078125 12.664062 10.574219 12.558594 C 10.722656 12.523438 10.847656 12.472656 10.96875 12.375 C 10.96875 12.351562 10.96875 12.324219 10.96875 12.296875 C 10.996094 12.285156 11.027344 12.277344 11.054688 12.265625 C 11.175781 12.207031 11.210938 12.15625 11.277344 12.039062 C 11.296875 12.007812 11.316406 11.976562 11.335938 11.945312 C 11.496094 11.632812 11.519531 11.265625 11.433594 10.917969 C 11.398438 10.828125 11.359375 10.75 11.308594 10.667969 C 11.289062 10.628906 11.265625 10.59375 11.246094 10.558594 C 10.84375 10.125 10.097656 9.894531 9.53125 9.894531 Z M 4.5 10.015625 C 4.539062 10.136719 4.539062 10.136719 4.539062 10.136719 Z M 11.421875 10.097656 C 11.449219 10.125 11.472656 10.152344 11.5 10.179688 C 11.5 10.152344 11.5 10.125 11.5 10.097656 C 11.472656 10.097656 11.449219 10.097656 11.421875 10.097656 Z M 11.5 10.179688 C 11.523438 10.230469 11.546875 10.285156 11.574219 10.339844 C 11.574219 10.300781 11.574219 10.261719 11.574219 10.21875 C 11.550781 10.207031 11.523438 10.191406 11.5 10.179688 Z M 11.648438 10.382812 C 11.6875 10.464844 11.6875 10.464844 11.6875 10.464844 Z M 11.6875 10.464844 C 11.726562 10.542969 11.726562 10.542969 11.726562 10.542969 Z M 7.90625 11.929688 C 7.90625 12.035156 7.90625 12.144531 7.90625 12.253906 C 7.96875 12.253906 8.03125 12.253906 8.09375 12.253906 C 8.105469 12.226562 8.121094 12.199219 8.132812 12.171875 C 8.070312 12.089844 8.007812 12.007812 7.941406 11.929688 C 7.929688 11.929688 7.917969 11.929688 7.90625 11.929688 Z M 7.90625 11.929688 "/>
<path style=" stroke:none;fill-rule:nonzero;fill:rgb(99.607843%,89.411765%,85.882354%);fill-opacity:1;" d="M 4.386719 4.152344 C 4.609375 4.378906 4.609375 4.378906 4.621094 4.578125 C 4.621094 4.621094 4.621094 4.660156 4.621094 4.703125 C 4.621094 4.75 4.621094 4.796875 4.621094 4.847656 C 4.621094 4.898438 4.621094 4.949219 4.621094 5 C 4.621094 5.054688 4.621094 5.109375 4.621094 5.164062 C 4.621094 5.3125 4.621094 5.464844 4.621094 5.613281 C 4.621094 5.734375 4.621094 5.859375 4.621094 5.984375 C 4.621094 6.277344 4.621094 6.570312 4.621094 6.863281 C 4.621094 7.164062 4.621094 7.464844 4.621094 7.765625 C 4.625 8.027344 4.625 8.285156 4.625 8.546875 C 4.625 8.699219 4.625 8.855469 4.625 9.007812 C 4.625 9.15625 4.625 9.300781 4.625 9.445312 C 4.625 9.523438 4.625 9.605469 4.625 9.683594 C 4.625 9.730469 4.625 9.777344 4.625 9.824219 C 4.625 9.867188 4.625 9.90625 4.625 9.949219 C 4.613281 10.058594 4.59375 10.125 4.539062 10.21875 C 4.464844 10.273438 4.464844 10.273438 4.386719 10.300781 C 4.351562 10.285156 4.3125 10.273438 4.273438 10.257812 C 4.292969 10.242188 4.308594 10.222656 4.328125 10.207031 C 4.4375 10.078125 4.429688 9.953125 4.429688 9.789062 C 4.429688 9.738281 4.429688 9.691406 4.429688 9.644531 C 4.429688 9.566406 4.429688 9.566406 4.429688 9.484375 C 4.429688 9.429688 4.429688 9.375 4.429688 9.320312 C 4.429688 9.167969 4.429688 9.015625 4.429688 8.867188 C 4.429688 8.710938 4.429688 8.550781 4.429688 8.394531 C 4.429688 8.128906 4.429688 7.863281 4.429688 7.597656 C 4.429688 7.292969 4.429688 6.988281 4.429688 6.679688 C 4.429688 6.417969 4.429688 6.15625 4.429688 5.894531 C 4.429688 5.734375 4.429688 5.578125 4.429688 5.421875 C 4.429688 5.273438 4.429688 5.125 4.429688 4.980469 C 4.429688 4.898438 4.429688 4.820312 4.429688 4.738281 C 4.429688 4.667969 4.429688 4.667969 4.429688 4.59375 C 4.429688 4.554688 4.429688 4.511719 4.429688 4.46875 C 4.425781 4.359375 4.410156 4.257812 4.386719 4.152344 Z M 4.5 4.4375 C 4.511719 6.277344 4.527344 8.117188 4.539062 10.015625 C 4.550781 10.015625 4.5625 10.015625 4.578125 10.015625 C 4.578125 9.3125 4.578125 8.609375 4.582031 7.90625 C 4.582031 7.578125 4.582031 7.253906 4.582031 6.925781 C 4.582031 6.640625 4.582031 6.355469 4.582031 6.074219 C 4.585938 5.921875 4.585938 5.769531 4.585938 5.621094 C 4.585938 5.453125 4.585938 5.285156 4.585938 5.117188 C 4.585938 5.066406 4.585938 5.015625 4.585938 4.964844 C 4.585938 4.917969 4.585938 4.871094 4.585938 4.824219 C 4.585938 4.765625 4.585938 4.765625 4.585938 4.707031 C 4.582031 4.585938 4.582031 4.585938 4.5 4.4375 Z M 4.5 10.015625 C 4.539062 10.136719 4.539062 10.136719 4.539062 10.136719 Z M 4.5 10.015625 "/>
<path style=" stroke:none;fill-rule:nonzero;fill:rgb(99.607843%,93.725491%,91.764706%);fill-opacity:1;" d="M 12.027344 9.527344 C 12.265625 9.738281 12.355469 10.019531 12.40625 10.339844 C 12.464844 11.0625 12.375 11.671875 11.953125 12.253906 C 11.925781 12.296875 11.894531 12.339844 11.867188 12.382812 C 11.460938 12.847656 10.917969 13.128906 10.320312 13.160156 C 10.070312 13.167969 9.847656 13.152344 9.609375 13.070312 C 9.609375 13.054688 9.609375 13.042969 9.609375 13.027344 C 9.644531 13.03125 9.644531 13.03125 9.683594 13.03125 C 10.402344 13.058594 10.9375 13.007812 11.535156 12.539062 C 11.578125 12.507812 11.617188 12.480469 11.65625 12.449219 C 12.015625 12.070312 12.292969 11.550781 12.300781 11 C 12.300781 10.921875 12.300781 10.839844 12.300781 10.761719 C 12.304688 10.726562 12.304688 10.6875 12.304688 10.644531 C 12.308594 10.25 12.21875 9.945312 12.027344 9.609375 C 12.027344 9.582031 12.027344 9.554688 12.027344 9.527344 Z M 12.027344 9.527344 "/>
<path style=" stroke:none;fill-rule:nonzero;fill:rgb(99.607843%,62.7451%,50.588238%);fill-opacity:1;" d="M 7.714844 9.851562 C 7.742188 9.851562 7.765625 9.851562 7.792969 9.851562 C 7.847656 9.914062 7.847656 9.914062 7.914062 9.996094 C 8.042969 10.160156 8.179688 10.3125 8.320312 10.464844 C 8.207031 10.464844 8.207031 10.464844 8.09375 10.382812 C 8.082031 10.421875 8.070312 10.460938 8.058594 10.503906 C 8.046875 10.472656 8.035156 10.4375 8.023438 10.40625 C 7.921875 10.25 7.921875 10.25 7.566406 10.257812 C 7.566406 11.144531 7.566406 12.03125 7.566406 12.945312 C 7.691406 12.945312 7.816406 12.945312 7.941406 12.945312 C 7.957031 12.90625 7.96875 12.867188 7.980469 12.824219 C 8.160156 12.636719 8.332031 12.644531 8.578125 12.648438 C 8.703125 12.660156 8.808594 12.695312 8.925781 12.742188 C 8.925781 12.757812 8.925781 12.769531 8.925781 12.785156 C 8.890625 12.78125 8.855469 12.777344 8.820312 12.773438 C 8.558594 12.746094 8.34375 12.734375 8.09375 12.824219 C 8.09375 12.851562 8.09375 12.878906 8.09375 12.90625 C 8.070312 12.90625 8.042969 12.90625 8.019531 12.90625 C 8.019531 12.933594 8.019531 12.960938 8.019531 12.988281 C 7.917969 13.042969 7.84375 13.03125 7.730469 13.03125 C 7.691406 13.03125 7.65625 13.03125 7.617188 13.03125 C 7.585938 13.027344 7.558594 13.027344 7.527344 13.027344 C 7.472656 12.914062 7.484375 12.820312 7.484375 12.691406 C 7.484375 12.636719 7.484375 12.585938 7.484375 12.527344 C 7.484375 12.46875 7.484375 12.410156 7.484375 12.351562 C 7.484375 12.292969 7.484375 12.230469 7.484375 12.171875 C 7.484375 12.046875 7.484375 11.921875 7.484375 11.792969 C 7.484375 11.632812 7.484375 11.472656 7.484375 11.308594 C 7.484375 11.1875 7.484375 11.0625 7.484375 10.9375 C 7.484375 10.878906 7.484375 10.820312 7.484375 10.757812 C 7.484375 10.675781 7.484375 10.59375 7.484375 10.507812 C 7.484375 10.460938 7.484375 10.414062 7.484375 10.367188 C 7.488281 10.257812 7.488281 10.257812 7.527344 10.21875 C 7.597656 10.210938 7.667969 10.203125 7.738281 10.195312 C 7.777344 10.191406 7.8125 10.1875 7.855469 10.1875 C 7.882812 10.183594 7.914062 10.179688 7.941406 10.179688 C 7.917969 10.148438 7.917969 10.148438 7.894531 10.117188 C 7.871094 10.089844 7.851562 10.066406 7.828125 10.039062 C 7.808594 10.011719 7.789062 9.984375 7.765625 9.960938 C 7.714844 9.894531 7.714844 9.894531 7.714844 9.851562 Z M 7.714844 9.851562 "/>
<path style=" stroke:none;fill-rule:nonzero;fill:rgb(99.607843%,98.039216%,97.647059%);fill-opacity:1;" d="M 6.226562 4.054688 C 6.257812 4.054688 6.285156 4.054688 6.316406 4.054688 C 6.59375 4.0625 6.929688 4.09375 7.144531 4.300781 C 7.164062 4.328125 7.164062 4.328125 7.1875 4.355469 C 7.035156 4.300781 6.882812 4.246094 6.734375 4.195312 C 6.589844 4.183594 6.449219 4.183594 6.304688 4.179688 C 6.246094 4.179688 6.246094 4.179688 6.1875 4.175781 C 5.953125 4.175781 5.8125 4.183594 5.636719 4.355469 C 5.574219 4.484375 5.582031 4.625 5.578125 4.769531 C 5.574219 4.800781 5.574219 4.835938 5.570312 4.871094 C 5.554688 5.3125 5.554688 5.753906 5.558594 6.195312 C 5.558594 6.28125 5.558594 6.371094 5.558594 6.457031 C 5.558594 6.664062 5.558594 6.875 5.558594 7.082031 C 5.808594 7.097656 6.058594 7.109375 6.316406 7.125 C 6.316406 7.136719 6.316406 7.152344 6.316406 7.164062 C 6.183594 7.167969 6.054688 7.167969 5.921875 7.167969 C 5.867188 7.167969 5.867188 7.167969 5.808594 7.167969 C 5.773438 7.167969 5.738281 7.167969 5.699219 7.167969 C 5.667969 7.167969 5.632812 7.167969 5.601562 7.171875 C 5.523438 7.164062 5.523438 7.164062 5.484375 7.125 C 5.480469 7.042969 5.480469 6.960938 5.476562 6.878906 C 5.476562 6.824219 5.476562 6.769531 5.476562 6.714844 C 5.476562 6.660156 5.476562 6.601562 5.476562 6.542969 C 5.476562 6.511719 5.476562 6.484375 5.476562 6.453125 C 5.472656 6.296875 5.472656 6.140625 5.472656 5.988281 C 5.472656 5.828125 5.472656 5.667969 5.46875 5.507812 C 5.46875 5.382812 5.46875 5.261719 5.46875 5.136719 C 5.46875 5.078125 5.46875 5.019531 5.46875 4.960938 C 5.464844 4.878906 5.464844 4.792969 5.46875 4.710938 C 5.464844 4.664062 5.464844 4.617188 5.464844 4.570312 C 5.488281 4.40625 5.542969 4.320312 5.636719 4.195312 C 5.832031 4.070312 6.003906 4.050781 6.226562 4.054688 Z M 6.226562 4.054688 "/>
<path style=" stroke:none;fill-rule:nonzero;fill:rgb(99.607843%,98.431373%,97.647059%);fill-opacity:1;" d="M 3.140625 10.300781 C 3.21875 10.316406 3.21875 10.316406 3.289062 10.339844 C 3.253906 10.355469 3.214844 10.367188 3.175781 10.382812 C 3.164062 10.515625 3.152344 10.648438 3.140625 10.789062 C 4.238281 10.789062 5.335938 10.789062 6.46875 10.789062 C 6.46875 10.640625 6.46875 10.492188 6.46875 10.339844 C 6.492188 10.339844 6.519531 10.339844 6.542969 10.339844 C 6.542969 10.421875 6.546875 10.503906 6.546875 10.582031 C 6.546875 10.628906 6.546875 10.671875 6.546875 10.71875 C 6.542969 10.828125 6.542969 10.828125 6.507812 10.871094 C 6.398438 10.875 6.296875 10.875 6.1875 10.875 C 6.140625 10.875 6.140625 10.875 6.089844 10.875 C 5.976562 10.875 5.867188 10.875 5.757812 10.875 C 5.679688 10.875 5.605469 10.875 5.527344 10.875 C 5.328125 10.875 5.125 10.875 4.925781 10.871094 C 4.71875 10.871094 4.515625 10.871094 4.308594 10.871094 C 3.90625 10.871094 3.503906 10.871094 3.101562 10.871094 C 3.0625 10.675781 3.070312 10.539062 3.101562 10.339844 C 3.113281 10.328125 3.125 10.3125 3.140625 10.300781 Z M 3.140625 10.300781 "/>
<path style=" stroke:none;fill-rule:nonzero;fill:rgb(99.607843%,95.294118%,93.725491%);fill-opacity:1;" d="M 9.078125 6.066406 C 9.816406 6.027344 9.816406 6.027344 10.054688 6.253906 C 10.070312 6.273438 10.085938 6.292969 10.097656 6.308594 C 10.011719 6.292969 9.921875 6.273438 9.835938 6.25 C 9.605469 6.1875 9.390625 6.179688 9.152344 6.1875 C 9.136719 6.222656 9.136719 6.222656 9.117188 6.257812 C 8.890625 6.714844 8.640625 6.992188 8.246094 7.289062 C 8.257812 7.421875 8.269531 7.554688 8.285156 7.695312 C 8.207031 7.652344 8.207031 7.652344 8.171875 7.53125 C 8.144531 7.402344 8.136719 7.292969 8.171875 7.164062 C 8.246094 7.085938 8.328125 7.035156 8.417969 6.980469 C 8.742188 6.773438 8.917969 6.417969 9.078125 6.066406 Z M 9.078125 6.066406 "/>
<path style=" stroke:none;fill-rule:nonzero;fill:rgb(99.607843%,89.803922%,86.666667%);fill-opacity:1;" d="M 7.640625 4.316406 C 7.773438 4.375 7.84375 4.453125 7.929688 4.574219 C 7.953125 4.605469 7.976562 4.636719 8 4.671875 C 8.054688 4.757812 8.082031 4.820312 8.09375 4.925781 C 8.082031 4.941406 8.070312 4.953125 8.058594 4.96875 C 8.070312 5.035156 8.082031 5.101562 8.09375 5.171875 C 8.101562 5.277344 8.109375 5.382812 8.117188 5.488281 C 8.121094 5.585938 8.125 5.683594 8.132812 5.78125 C 8.121094 5.511719 8.109375 5.242188 8.09375 4.96875 C 8.242188 5.125 8.210938 5.40625 8.214844 5.617188 C 8.214844 5.820312 8.1875 5.992188 8.132812 6.1875 C 8.058594 6.207031 8.058594 6.207031 7.980469 6.230469 C 7.980469 6.199219 7.980469 6.167969 7.984375 6.132812 C 7.984375 5.992188 7.988281 5.847656 7.988281 5.703125 C 7.988281 5.65625 7.988281 5.605469 7.992188 5.554688 C 7.992188 5.160156 7.949219 4.832031 7.746094 4.492188 C 7.726562 4.460938 7.707031 4.425781 7.6875 4.390625 C 7.671875 4.367188 7.65625 4.339844 7.640625 4.316406 Z M 8.058594 6.066406 C 8.09375 6.148438 8.09375 6.148438 8.09375 6.148438 Z M 8.058594 6.066406 "/>
<path style=" stroke:none;fill-rule:nonzero;fill:rgb(99.607843%,98.823529%,98.431373%);fill-opacity:1;" d="M 10.136719 10.339844 C 10.160156 10.355469 10.1875 10.367188 10.210938 10.382812 C 10.214844 10.457031 10.214844 10.527344 10.214844 10.601562 C 10.214844 10.644531 10.214844 10.683594 10.214844 10.726562 C 10.210938 10.828125 10.210938 10.828125 10.175781 10.871094 C 10.015625 10.878906 9.859375 10.878906 9.703125 10.878906 C 9.621094 10.878906 9.542969 10.878906 9.464844 10.878906 C 9.414062 10.878906 9.363281 10.878906 9.3125 10.878906 C 9.265625 10.878906 9.222656 10.878906 9.171875 10.878906 C 9.027344 10.871094 8.914062 10.835938 8.777344 10.789062 C 8.777344 10.773438 8.777344 10.761719 8.777344 10.75 C 9.226562 10.761719 9.675781 10.773438 10.136719 10.789062 C 10.136719 10.640625 10.136719 10.492188 10.136719 10.339844 Z M 10.136719 10.339844 "/>
<path style=" stroke:none;fill-rule:nonzero;fill:rgb(99.607843%,92.156863%,89.411765%);fill-opacity:1;" d="M 6.222656 4.054688 C 6.253906 4.054688 6.28125 4.054688 6.3125 4.054688 C 6.59375 4.0625 6.925781 4.09375 7.144531 4.300781 C 7.164062 4.328125 7.164062 4.328125 7.1875 4.355469 C 7.035156 4.300781 6.882812 4.246094 6.734375 4.195312 C 6.589844 4.183594 6.449219 4.183594 6.304688 4.179688 C 6.246094 4.179688 6.246094 4.179688 6.1875 4.175781 C 5.953125 4.175781 5.808594 4.183594 5.636719 4.355469 C 5.585938 4.429688 5.585938 4.429688 5.566406 4.507812 C 5.550781 4.550781 5.535156 4.597656 5.523438 4.640625 C 5.511719 4.640625 5.496094 4.640625 5.484375 4.640625 C 5.492188 4.46875 5.507812 4.378906 5.609375 4.242188 C 5.800781 4.074219 5.980469 4.054688 6.222656 4.054688 Z M 6.222656 4.054688 "/>
<path style=" stroke:none;fill-rule:nonzero;fill:rgb(99.607843%,96.862745%,95.686275%);fill-opacity:1;" d="M 8.925781 12.742188 C 8.925781 12.757812 8.925781 12.769531 8.925781 12.785156 C 8.890625 12.78125 8.855469 12.777344 8.820312 12.773438 C 8.558594 12.746094 8.34375 12.734375 8.09375 12.824219 C 8.09375 12.851562 8.09375 12.878906 8.09375 12.90625 C 8.070312 12.90625 8.042969 12.90625 8.019531 12.90625 C 8.019531 12.933594 8.019531 12.960938 8.019531 12.988281 C 7.917969 13.042969 7.84375 13.03125 7.730469 13.03125 C 7.691406 13.03125 7.65625 13.03125 7.617188 13.03125 C 7.585938 13.027344 7.558594 13.027344 7.527344 13.027344 C 7.527344 13 7.527344 12.972656 7.527344 12.945312 C 7.664062 12.945312 7.800781 12.945312 7.941406 12.945312 C 7.957031 12.90625 7.96875 12.867188 7.980469 12.824219 C 8.234375 12.558594 8.617188 12.617188 8.925781 12.742188 Z M 8.925781 12.742188 "/>
<path style=" stroke:none;fill-rule:nonzero;fill:rgb(99.607843%,95.294118%,93.725491%);fill-opacity:1;" d="M 6.390625 7.574219 C 6.5625 7.558594 6.5625 7.558594 6.652344 7.625 C 6.671875 7.652344 6.691406 7.675781 6.714844 7.699219 C 6.734375 7.726562 6.757812 7.753906 6.78125 7.78125 C 6.804688 7.808594 6.828125 7.839844 6.851562 7.867188 C 6.878906 7.894531 6.902344 7.921875 6.925781 7.953125 C 7.03125 8.078125 7.121094 8.191406 7.1875 8.347656 C 6.992188 8.292969 6.910156 8.222656 6.789062 8.046875 C 6.667969 7.878906 6.550781 7.742188 6.390625 7.613281 C 6.390625 7.601562 6.390625 7.585938 6.390625 7.574219 Z M 6.390625 7.574219 "/>
<path style=" stroke:none;fill-rule:nonzero;fill:rgb(99.607843%,94.901961%,92.941177%);fill-opacity:1;" d="M 7.714844 9.851562 C 7.742188 9.851562 7.765625 9.851562 7.792969 9.851562 C 7.847656 9.914062 7.847656 9.914062 7.914062 9.996094 C 8.042969 10.160156 8.179688 10.3125 8.320312 10.464844 C 8.207031 10.464844 8.207031 10.464844 8.09375 10.382812 C 8.082031 10.421875 8.070312 10.460938 8.058594 10.503906 C 8.046875 10.46875 8.035156 10.4375 8.023438 10.402344 C 7.953125 10.289062 7.953125 10.289062 7.851562 10.285156 C 7.753906 10.289062 7.660156 10.292969 7.566406 10.300781 C 7.550781 10.367188 7.539062 10.433594 7.527344 10.503906 C 7.515625 10.503906 7.503906 10.503906 7.488281 10.503906 C 7.488281 10.421875 7.488281 10.339844 7.488281 10.257812 C 7.554688 10.1875 7.648438 10.203125 7.738281 10.195312 C 7.777344 10.191406 7.8125 10.1875 7.855469 10.1875 C 7.882812 10.183594 7.914062 10.179688 7.941406 10.179688 C 7.917969 10.148438 7.917969 10.148438 7.894531 10.117188 C 7.871094 10.089844 7.851562 10.066406 7.828125 10.039062 C 7.808594 10.011719 7.789062 9.984375 7.765625 9.960938 C 7.714844 9.894531 7.714844 9.894531 7.714844 9.851562 Z M 7.714844 9.851562 "/>
<path style=" stroke:none;fill-rule:nonzero;fill:rgb(99.607843%,87.843138%,83.92157%);fill-opacity:1;" d="M 4.578125 9.324219 C 4.589844 9.324219 4.601562 9.324219 4.613281 9.324219 C 4.617188 9.441406 4.617188 9.5625 4.621094 9.679688 C 4.621094 9.730469 4.621094 9.730469 4.621094 9.78125 C 4.621094 9.8125 4.621094 9.847656 4.621094 9.878906 C 4.621094 9.910156 4.621094 9.941406 4.625 9.96875 C 4.613281 10.070312 4.585938 10.132812 4.539062 10.21875 C 4.464844 10.273438 4.464844 10.273438 4.386719 10.300781 C 4.351562 10.285156 4.3125 10.273438 4.273438 10.257812 C 4.292969 10.242188 4.308594 10.222656 4.328125 10.207031 C 4.394531 10.132812 4.394531 10.132812 4.464844 10.015625 C 4.476562 10.042969 4.488281 10.070312 4.5 10.097656 C 4.5625 9.960938 4.554688 9.8125 4.558594 9.664062 C 4.5625 9.613281 4.5625 9.613281 4.566406 9.566406 C 4.570312 9.484375 4.574219 9.402344 4.578125 9.324219 Z M 4.578125 9.324219 "/>
<path style=" stroke:none;fill-rule:nonzero;fill:rgb(99.607843%,85.09804%,80.392158%);fill-opacity:1;" d="M 8.398438 9.933594 C 8.460938 9.976562 8.460938 9.976562 8.523438 10.039062 C 8.546875 10.0625 8.570312 10.085938 8.59375 10.109375 C 8.679688 10.199219 8.765625 10.289062 8.851562 10.382812 C 8.640625 10.324219 8.484375 10.210938 8.320312 10.054688 C 8.308594 10.027344 8.296875 10.003906 8.285156 9.972656 C 8.320312 9.960938 8.359375 9.949219 8.398438 9.933594 Z M 8.398438 9.933594 "/>
<path style=" stroke:none;fill-rule:nonzero;fill:rgb(99.607843%,92.54902%,89.803922%);fill-opacity:1;" d="M 8.851562 9.160156 C 8.957031 9.183594 9.058594 9.210938 9.164062 9.238281 C 9.191406 9.242188 9.222656 9.25 9.253906 9.257812 C 9.296875 9.269531 9.296875 9.269531 9.339844 9.28125 C 9.378906 9.289062 9.378906 9.289062 9.417969 9.300781 C 9.5 9.324219 9.570312 9.363281 9.644531 9.40625 C 9.433594 9.414062 9.246094 9.378906 9.039062 9.324219 C 9.050781 9.351562 9.066406 9.375 9.078125 9.40625 C 8.9375 9.355469 8.917969 9.296875 8.851562 9.160156 Z M 8.851562 9.160156 "/>
<path style=" stroke:none;fill-rule:nonzero;fill:rgb(99.607843%,90.980393%,88.235295%);fill-opacity:1;" d="M 11.648438 10.339844 C 11.675781 10.339844 11.699219 10.339844 11.726562 10.339844 C 11.8125 10.558594 11.851562 10.714844 11.839844 10.953125 C 11.8125 10.953125 11.789062 10.953125 11.761719 10.953125 C 11.726562 10.75 11.6875 10.542969 11.648438 10.339844 Z M 11.648438 10.339844 "/>
<path style=" stroke:none;fill-rule:nonzero;fill:rgb(99.607843%,88.235295%,84.313726%);fill-opacity:1;" d="M 6.390625 7.574219 C 6.472656 7.554688 6.472656 7.554688 6.582031 7.574219 C 6.667969 7.660156 6.738281 7.753906 6.808594 7.859375 C 6.769531 7.871094 6.734375 7.882812 6.695312 7.898438 C 6.617188 7.839844 6.617188 7.839844 6.535156 7.761719 C 6.507812 7.734375 6.484375 7.707031 6.453125 7.679688 C 6.390625 7.613281 6.390625 7.613281 6.390625 7.574219 Z M 6.390625 7.574219 "/>
<path style=" stroke:none;fill-rule:nonzero;fill:rgb(99.607843%,83.92157%,78.823531%);fill-opacity:1;" d="M 7.640625 4.316406 C 7.78125 4.375 7.84375 4.457031 7.933594 4.585938 C 7.96875 4.636719 7.96875 4.636719 8.003906 4.6875 C 8.03125 4.722656 8.03125 4.722656 8.058594 4.761719 C 8.007812 4.777344 7.957031 4.789062 7.90625 4.804688 C 7.867188 4.738281 7.832031 4.671875 7.792969 4.605469 C 7.773438 4.570312 7.753906 4.53125 7.730469 4.492188 C 7.699219 4.433594 7.667969 4.375 7.640625 4.316406 Z M 7.640625 4.316406 "/>
<path style=" stroke:none;fill-rule:nonzero;fill:rgb(99.607843%,95.686275%,94.509804%);fill-opacity:1;" d="M 11.042969 6.351562 C 11.042969 6.457031 11.042969 6.566406 11.042969 6.675781 C 10.824219 6.488281 10.824219 6.488281 10.78125 6.351562 C 10.894531 6.3125 10.925781 6.308594 11.042969 6.351562 Z M 10.929688 6.390625 C 10.929688 6.433594 10.929688 6.472656 10.929688 6.515625 C 10.957031 6.539062 10.980469 6.566406 11.007812 6.59375 C 11.007812 6.527344 11.007812 6.460938 11.007812 6.390625 C 10.980469 6.390625 10.957031 6.390625 10.929688 6.390625 Z M 10.929688 6.390625 "/>
<path style=" stroke:none;fill-rule:nonzero;fill:rgb(100%,95.686275%,94.509804%);fill-opacity:1;" d="M 4.386719 4.152344 C 4.574219 4.324219 4.574219 4.324219 4.589844 4.492188 C 4.585938 4.527344 4.582031 4.5625 4.578125 4.601562 C 4.539062 4.601562 4.5 4.601562 4.464844 4.601562 C 4.4375 4.453125 4.414062 4.304688 4.386719 4.152344 Z M 4.386719 4.152344 "/>
<path style=" stroke:none;fill-rule:nonzero;fill:rgb(99.607843%,94.509804%,92.941177%);fill-opacity:1;" d="M 10.441406 9.566406 C 10.691406 9.597656 10.691406 9.597656 10.816406 9.691406 C 10.804688 9.714844 10.792969 9.742188 10.78125 9.769531 C 10.679688 9.757812 10.582031 9.742188 10.476562 9.730469 C 10.488281 9.703125 10.503906 9.675781 10.515625 9.648438 C 10.492188 9.621094 10.464844 9.59375 10.441406 9.566406 Z M 10.441406 9.566406 "/>
<path style=" stroke:none;fill-rule:nonzero;fill:rgb(99.607843%,91.37255%,88.235295%);fill-opacity:1;" d="M 9.378906 9.8125 C 9.53125 9.835938 9.683594 9.859375 9.835938 9.894531 C 9.835938 9.90625 9.835938 9.921875 9.835938 9.933594 C 9.617188 9.9375 9.617188 9.9375 9.53125 9.894531 C 9.519531 9.921875 9.507812 9.945312 9.492188 9.972656 C 9.457031 9.921875 9.417969 9.867188 9.378906 9.8125 Z M 9.378906 9.8125 "/>
</g>
</svg>
